<?xml version="1.0" encoding="utf-8"?>
<!-- Generator: Adobe Illustrator 25.2.1, SVG Export Plug-In . SVG Version: 6.00 Build 0)  -->
<svg version="1.1" id="Layer_1" xmlns="http://www.w3.org/2000/svg" xmlns:xlink="http://www.w3.org/1999/xlink" x="0px" y="0px"
	 viewBox="0 0 512 512" style="enable-background:new 0 0 512 512;" xml:space="preserve">
<style type="text/css">
	.st0{fill:#FFFFFF;}
</style>
<g>
	<path class="st0" d="M408.1,247.9c-1.7-27.1-10-52.1-24.8-74.9c-14.8-22.8-34.7-40.4-59.5-52.9c-24.8-12.5-50.8-17.9-78-16.2
		c-27.1,1.7-52.1,10-74.9,24.8c-22.8,14.8-40.4,34.7-52.9,59.5c-15,29.8-19.8,61.1-14.3,93.6c5.4,32.6,19.7,60.4,42.7,83.4
		c2.9,2.2,5.5,3,7.8,2.3c2.3-0.6,3.9-2,5-4.2c0.2-0.4,1.8-3.6,4.7-9.7c3-6.1,5.6-11.4,7.9-15.9l-4.5-1.4c-2.9-0.8-6.3-2.3-10.2-4.3
		c-4-2.1-7.9-4.5-11.8-7.5c-3.9-2.9-7-6.7-9.3-11.3c-2.3-4.6-3.1-9.6-2.3-14.9l0.3-5c0.2-3.3-0.2-7.3-1.1-11.9
		c-0.9-4.6-2.3-8.2-4.4-10.7l-0.8-1.5c-0.5-1-0.9-2.1-1.2-3.3c-0.3-1.2-0.4-2.3-0.4-3.3c0.1-1,0.7-1.5,1.9-1.6
		c1.2-0.1,3.1,0.5,5.6,1.8l3.3,2.3c2.1,1.7,4.4,4.6,6.7,8.7c2.3,4.1,3.6,8.7,4,13.6c0.3,6.2,1.7,11.6,4.3,16.1
		c2.6,4.5,5.8,7.7,9.8,9.7c3.9,2,7.5,3.4,10.6,4.2c3.2,0.8,6.3,1.3,9.4,1.4c5.1-7.4,11.1-12.1,18-14c-6.4-4.1-12-8.2-16.7-12.4
		c-4.7-4.1-9.1-9.3-13.3-15.4c-4.2-6.1-6.9-12.5-8.4-19.2c-1.4-6.7-1.4-14.5,0-23.4c1.4-9,4.7-18.5,9.8-28.6
		c7.2-14.4,18.1-24.3,32.5-29.7c1-13,7.5-24.9,19.5-35.8c4,0.7,8.7,4,14.1,10.1c5.4,6.1,9.2,10.9,11.4,14.3c2.2,3.5,3.9,6.4,5.2,8.6
		c12.6,2.5,24.8,6.6,36.6,12.6c11.8,5.9,22.4,13.2,31.9,21.8l8.9-0.9c6.1-0.5,12.9-0.4,20.3,0.4c7.5,0.8,12.6,2.6,15.4,5.3
		c-1.4,16.1-7,28.5-16.8,37.1c4.3,14.8,2.9,29.4-4.4,43.8c-5.1,10.1-10.8,18.4-17.1,25c-6.3,6.6-12.6,11.2-18.9,14
		c-6.2,2.8-13,4.3-20.4,4.6c-7.4,0.3-14.1-0.2-20.3-1.5c-6.1-1.3-12.8-3.3-19.9-6c3.5,8.5,2.3,18.4-3.4,30l-18.9,37.6
		c-1.1,2.1-1.2,4.3-0.5,6.5c0.8,2.2,2.9,3.8,6.4,4.8c32.2,4.7,63-0.5,92.4-15.6c29.4-15.1,51.6-37.6,66.6-67.4
		C404.4,301.1,409.8,275.1,408.1,247.9z"/>
</g>
</svg>
