<?xml version="1.0" encoding="utf-8"?>
<!-- Generator: Adobe Illustrator 25.2.1, SVG Export Plug-In . SVG Version: 6.00 Build 0)  -->
<svg version="1.1" id="Layer_1" xmlns="http://www.w3.org/2000/svg" xmlns:xlink="http://www.w3.org/1999/xlink" x="0px" y="0px"
	 viewBox="0 0 512 512" style="enable-background:new 0 0 512 512;" xml:space="preserve">
<style type="text/css">
	.st0{fill:#FFFFFF;}
</style>
<g id="JlecSQ.tif">
	<g>
		<path class="st0" d="M416.6,232.3c0,53.4,0.1,106.8,0,160.3c0,21-4.7,25.7-25.5,26c-19.2,0.2-38.3,0.1-57.5,0
			c-12.4-0.1-21.8-4.4-21.1-18.7c0.6-13.8,9.8-18.2,22.2-18.2c10.9,0,21.8-0.4,32.6,0.1c8.8,0.4,12.4-3.5,12.1-11.9
			c0-0.5,0-1,0.1-1.6c2.8-44.3,2.8-44.3-41.8-44.3c-55.9,0-111.8,0.1-167.8-0.1c-12.9,0-25.2,0.7-32.3,13.6
			c-7.1,12.7-5.4,24.6,3.4,36.2c7.4,9.8,7.1,19.6-3,27.2c-10.6,8-21.3,4.3-26.5-5.7c-7.2-13.8-15.5-29.2-15.8-44.1
			c-1.5-80.4-1-160.8-0.6-241.2c0.2-39.4,28.6-66.9,70.3-67.4c75.1-0.7,150.1-0.3,225.2-0.1c19.1,0,25.9,7.3,26,26.6
			C416.7,123.4,416.6,177.9,416.6,232.3z M378.1,80.8c-6.1,0-11.1,0-16.2,0c-64.2,0-128.4-0.1-192.6,0c-26.9,0-36,9.3-36,36.7
			c-0.1,52.4,0,104.8,0,157.1c0,5,0.5,10,0.8,14.2c16-0.7,30.5-1.9,44.9-1.9c60-0.2,120.1-0.5,180.1,0.2
			c14.9,0.2,21.1-3.3,20.8-19.8c-0.9-56-0.3-112-0.4-168C379.5,93.8,378.7,88.2,378.1,80.8z"/>
		<path class="st0" d="M277,467.7c-11.6-8.3-22.4-14.6-31.4-22.8c-12-10.9-21.9-10-33.6,0.3c-9.5,8.3-20.4,14.9-33.1,23.9
			c-1.5-7.4-2.9-11.2-2.9-15.1c-0.2-23.8,0.2-47.7-0.3-71.5c-0.2-10.1,3.7-13.9,13.6-13.8c26.4,0.3,52.8-0.3,79.2,0.6
			c4.3,0.1,11.9,6,12,9.4c0.9,26.9,0.4,53.9,0.2,80.8C280.6,461.2,279.1,463,277,467.7z"/>
	</g>
</g>
</svg>
