<?xml version="1.0" encoding="utf-8"?>
<!-- Generator: Adobe Illustrator 25.2.1, SVG Export Plug-In . SVG Version: 6.00 Build 0)  -->
<svg version="1.1" id="Layer_1" xmlns="http://www.w3.org/2000/svg" xmlns:xlink="http://www.w3.org/1999/xlink" x="0px" y="0px"
	 viewBox="0 0 1024 180" style="enable-background:new 0 0 1024 180;" xml:space="preserve">
<style type="text/css">
	.st0{fill:#FFFFFF;}
	.st1{fill:#636363;}
</style>
<g>
	<path class="st0" d="M2.8,157.8L6.2,170c128.6-36.4,260.6-58.7,393.8-66.8V90.5C265.7,98.6,132.5,121.2,2.8,157.8z"/>
	<path class="st0" d="M1022,157.8c-130-36.8-263.5-59.3-398.1-67.3v12.7c133.5,8,265.8,30.4,394.7,66.8L1022,157.8z"/>
	<path class="st0" d="M611.3,89.8v12.7c4.2,0.2,8.4,0.5,12.6,0.7V90.5C619.7,90.2,615.5,90,611.3,89.8z"/>
	<path class="st0" d="M412.6,89.8c-4.2,0.2-8.4,0.5-12.6,0.7v12.7c4.2-0.3,8.4-0.5,12.6-0.7V89.8z"/>
</g>
<path class="st0" d="M583.1,130.5H440.7c-8.5,0-15.5-6.9-15.5-15.5V57.2c0-26.4,21.4-47.7,47.7-47.7h77.9
	c26.4,0,47.7,21.4,47.7,47.7V115C598.6,123.6,591.7,130.5,583.1,130.5z"/>
<g>
	<path class="st1" d="M538.4,76c9-9,9-23.7,0-32.7s-23.7-9-32.7,0c-8,8-8.9,20.4-2.7,29.4l-24.2,24.2l6.3,6.3L509.3,79
		C518.3,84.9,530.5,83.9,538.4,76z M510.2,71.5c-6.5-6.5-6.5-17.2,0-23.7c6.5-6.5,17.2-6.5,23.7,0c6.5,6.5,6.5,17.2,0,23.7
		C527.4,78.1,516.8,78.1,510.2,71.5z"/>
</g>
</svg>
