<?xml version="1.0" encoding="utf-8"?>
<!-- Generator: Adobe Illustrator 25.2.1, SVG Export Plug-In . SVG Version: 6.00 Build 0)  -->
<svg version="1.1" id="Layer_1" xmlns="http://www.w3.org/2000/svg" xmlns:xlink="http://www.w3.org/1999/xlink" x="0px" y="0px"
	 viewBox="0 0 512 512" style="enable-background:new 0 0 512 512;" xml:space="preserve">
<style type="text/css">
	.st0{fill:url(#SVGID_1_);}
	.st1{fill:#FFFFFF;}
</style>
<g>
	<g>
		
			<linearGradient id="SVGID_1_" gradientUnits="userSpaceOnUse" x1="-305.3775" y1="1471.0801" x2="-305.3775" y2="1469.8525" gradientTransform="matrix(209.24 -147.4944 -147.4944 -209.24 281038.375 262894.4375)">
			<stop  offset="0" style="stop-color:#0091E6"/>
			<stop  offset="1" style="stop-color:#0079BF"/>
		</linearGradient>
		<path class="st0" d="M61.7,199.9L268.4,54.2c13.9-9.8,33-6.5,42.8,7.4l145.7,206.7c9.8,13.9,6.5,33-7.4,42.8L242.8,456.8
			c-13.9,9.8-33,6.5-42.8-7.4L54.3,242.7C44.5,228.8,47.9,209.7,61.7,199.9z"/>
		<path class="st1" d="M217.3,140.2l54.3-38.2c6.6-4.7,15.8-3.1,20.5,3.6l62.2,88.3c4.7,6.6,3.1,15.8-3.6,20.5l-54.3,38.2
			c-6.6,4.7-15.8,3.1-20.5-3.6l-62.2-88.3C209.1,154.1,210.7,144.9,217.3,140.2z"/>
		<path class="st1" d="M105.6,219l54.3-38.2c6.6-4.7,15.8-3.1,20.5,3.6l107.5,152.5c4.7,6.6,3.1,15.8-3.6,20.5l-54.3,38.2
			c-6.6,4.7-15.8,3.1-20.5-3.6L102,239.5C97.4,232.8,99,223.7,105.6,219z"/>
	</g>
</g>
</svg>
